<svg width="80" height="80" viewBox="0 0 80 80" fill="none" xmlns="http://www.w3.org/2000/svg">
<path opacity="0.5" d="M73.3326 42.3265C73.3277 47.2251 73.2904 51.3886 73.012 54.8051C72.689 58.7695 72.027 62.0823 70.5455 64.8336C69.892 66.0471 69.089 67.1339 68.1113 68.1115C65.3367 70.8861 61.8017 72.143 57.3219 72.7453C52.9452 73.3337 47.3358 73.3337 40.178 73.3337H39.8222C32.6644 73.3337 27.0549 73.3337 22.6782 72.7453C18.1984 72.143 14.6635 70.8861 11.8889 68.1115C9.4291 65.6518 8.15884 62.5902 7.48334 58.7924C6.81977 55.0616 6.69838 50.4199 6.67316 44.6561C6.66675 43.19 6.66675 41.6393 6.66675 40.0034V39.8224C6.66671 32.6646 6.66668 27.0552 7.25511 22.6785C7.8574 18.1987 9.11427 14.6637 11.8889 11.8891C14.6635 9.11452 18.1984 7.85765 22.6782 7.25535C26.5705 6.73206 31.5783 6.67416 37.6735 6.66778C38.9579 6.66643 40.0001 7.70819 40.0001 8.99257C40.0001 10.277 38.9574 11.3177 37.673 11.319C31.4917 11.3255 26.8918 11.3819 23.298 11.865C19.334 12.398 16.9441 13.4116 15.1777 15.178C13.4114 16.9444 12.3977 19.3342 11.8648 23.2982C11.3229 27.3292 11.3179 32.626 11.3179 40.0003C11.3179 40.9009 11.3179 41.7718 11.319 42.6151L14.4233 39.8988C17.2489 37.4264 21.5076 37.5682 24.1625 40.2231L37.464 53.5246C39.5949 55.6556 42.9493 55.9461 45.415 54.2133L46.3396 53.5635C49.8876 51.07 54.6879 51.3589 57.9113 54.2599L66.6881 62.159C67.5714 60.3037 68.096 57.8661 68.3762 54.4274C68.6402 51.1873 68.6765 47.2519 68.6815 42.3266C68.6828 41.0422 69.7235 40.0003 71.0078 40.0003C72.2922 40.0003 73.334 41.0421 73.3326 42.3265Z" fill="#8E95A2"/>
<path fill-rule="evenodd" clip-rule="evenodd" d="M58.3333 36.667C51.2622 36.667 47.7267 36.667 45.53 34.4703C43.3333 32.2736 43.3333 28.7381 43.3333 21.667C43.3333 14.5959 43.3333 11.0604 45.53 8.86369C47.7267 6.66699 51.2622 6.66699 58.3333 6.66699C65.4043 6.66699 68.9399 6.66699 71.1366 8.86369C73.3333 11.0604 73.3333 14.5959 73.3333 21.667C73.3333 28.7381 73.3333 32.2736 71.1366 34.4703C68.9399 36.667 65.4043 36.667 58.3333 36.667ZM53.4344 13.2326C52.458 12.2562 50.8751 12.2562 49.8988 13.2326C48.9225 14.2089 48.9225 15.7918 49.8988 16.7681L54.7977 21.667L49.8988 26.5659C48.9225 27.5422 48.9225 29.1251 49.8988 30.1014C50.8751 31.0777 52.458 31.0777 53.4344 30.1014L58.3333 25.2025L63.2322 30.1014C64.2085 31.0777 65.7914 31.0777 66.7677 30.1014C67.744 29.1251 67.744 27.5422 66.7677 26.5659L61.8688 21.667L66.7677 16.7681C67.744 15.7918 67.744 14.2089 66.7677 13.2326C65.7914 12.2562 64.2085 12.2562 63.2322 13.2326L58.3333 18.1315L53.4344 13.2326Z" fill="#8E95A2"/>
</svg>
